<?xml version="1.0" encoding="utf-8"?>
<!-- Generator: Adobe Illustrator 24.0.2, SVG Export Plug-In . SVG Version: 6.00 Build 0)  -->
<svg version="1.1" id="Layer_1" xmlns="http://www.w3.org/2000/svg" xmlns:xlink="http://www.w3.org/1999/xlink" x="0px" y="0px"
	 viewBox="0 0 184.7 184.7" style="enable-background:new 0 0 184.7 184.7;" xml:space="preserve">
<style type="text/css">
	.st0{clip-path:url(#SVGID_2_);}
	.st1{fill:#438BEC;}
	.st2{fill:#81AEF4;}
</style>
<g>
	<defs>
		<path id="SVGID_1_" d="M157.3,37.5L98.5,3.5c-3.8-2.2-8.5-2.2-12.3,0L27.4,37.5c-3.8,2.2-6.1,6.3-6.1,10.7V116
			c0,4.4,2.3,8.5,6.1,10.7l29.4,17v34.7c0,2,1.7,3.7,3.7,3.7c0.6,0,1.3-0.2,1.8-0.5l95-54.8c3.8-2.2,6.2-6.3,6.1-10.7V48.2
			C163.5,43.7,161.1,39.7,157.3,37.5L157.3,37.5z"/>
	</defs>
	<clipPath id="SVGID_2_">
		<use xlink:href="#SVGID_1_"  style="overflow:visible;"/>
	</clipPath>
	<g class="st0">
		<path class="st1" d="M163.4,41l-71.1,41L21.2,41v82.1l35.6,20.5v41.1l106.6-61.6V41z"/>
		<g>
			<path class="st2" d="M92.4,82.1L21.2,41L92.4,0l71.1,41L92.4,82.1z"/>
			<path class="st2" d="M91.1,80.8L21.7,40.8L21.2,41l71.1,41l71.1-41l-1.7-1L91.1,80.8z"/>
			<path class="st2" d="M92.4,82.6v-0.5L21.7,41.3l-0.5,0.3L92.4,82.6z"/>
		</g>
	</g>
</g>
</svg>
