<?xml version="1.0" encoding="UTF-8" standalone="no"?>
<svg
   viewBox="0 0 28 26"
   version="1.1"
   id="svg6"
   sodipodi:docname="2nix.svg"
   width="28"
   height="26"
   inkscape:version="1.4 (e7c3feb100, 2024-10-09)"
   xmlns:inkscape="http://www.inkscape.org/namespaces/inkscape"
   xmlns:sodipodi="http://sodipodi.sourceforge.net/DTD/sodipodi-0.dtd"
   xmlns="http://www.w3.org/2000/svg"
   xmlns:svg="http://www.w3.org/2000/svg"
   xmlns:rdf="http://www.w3.org/1999/02/22-rdf-syntax-ns#"
   xmlns:cc="http://creativecommons.org/ns#"
   xmlns:dc="http://purl.org/dc/elements/1.1/">
  <defs
     id="defs6" />
  <sodipodi:namedview
     id="namedview6"
     pagecolor="#ffffff"
     bordercolor="#000000"
     borderopacity="0.25"
     inkscape:showpageshadow="2"
     inkscape:pageopacity="0.0"
     inkscape:pagecheckerboard="0"
     inkscape:deskcolor="#d1d1d1"
     inkscape:zoom="14.34375"
     inkscape:cx="14.013072"
     inkscape:cy="13.002179"
     inkscape:window-width="1278"
     inkscape:window-height="702"
     inkscape:window-x="0"
     inkscape:window-y="0"
     inkscape:window-maximized="1"
     inkscape:current-layer="svg6" />
  <title
     id="title1">file_type_nix</title>
  <path
     d="M 11,8.115 4.183,20.76 2.59,17.87 4.429,14.483 0.778,14.473 0,13.029 0.8,11.552 6,11.57 7.868,8.123 Z"
     style="fill:#7ebae4;fill-rule:evenodd"
     id="path1" />
  <path
     d="m 11.527,18.223 h 13.64 l -1.541,2.922 -3.658,-0.011 1.817,3.389 -0.779,1.449 h -1.593 l -2.584,-4.825 -3.722,-0.008 z"
     style="fill:#7ebae4;fill-rule:evenodd"
     id="path2" />
  <path
     d="M 19.467,12.682 12.647,0.037 15.781,0.005 17.6,3.4 19.434,0.021 h 1.557 l 0.795,1.479 -2.612,4.807 1.854,3.455 z"
     style="fill:#7ebae4;fill-rule:evenodd"
     id="path3" />
  <path
     d="M 8.542,13.324 15.363,25.969 12.229,26 10.408,22.6 8.574,25.98 H 7.016 L 6.216,24.504 8.831,19.7 6.976,16.243 Z"
     style="fill:#5277c3;fill-rule:evenodd"
     id="path4" />
  <path
     d="M 16.464,7.751 H 2.823 L 4.365,4.829 8.023,4.84 6.207,1.451 6.986,0 h 1.592 l 2.584,4.825 3.722,0.008 z"
     style="fill:#5277c3;fill-rule:evenodd"
     id="path5" />
  <path
     d="M 17,17.888 23.817,5.244 25.41,8.134 23.571,11.52 27.222,11.53 28,12.979 27.2,14.456 22,14.438 20.132,17.885 Z"
     style="fill:#5277c3;fill-rule:evenodd"
     id="path6" />
  <metadata
     id="metadata6">
    <rdf:RDF>
      <cc:Work
         rdf:about="">
        <dc:title>file_type_nix</dc:title>
      </cc:Work>
    </rdf:RDF>
  </metadata>
</svg>
